<?xml version="1.0" encoding="UTF-8"?>
<svg version="1.1" viewBox="0 0 1121 1773" xmlns="http://www.w3.org/2000/svg"><defs><style>.st0 {
        fill: #fff;
      }

      .st1 {
        fill: #0096e1;
      }

      .st2 {
        fill: #333;
      }

      .st3 {
        fill: #f09bbe;
      }</style></defs><rect class="st0" x="106" y="123" width="902" height="1072" rx="17" ry="17"/><path d="m991 1197h-867c-11 0-20-8.9-20-20v-1e3c0-11 8.9-20 20-20h867c11 0 20 8.9 20 20v1e3c0 11-8.9 20-20 20zm-867-1072c-8.4 0-15 6.8-15 15v1e3c0 8.4 6.8 15 15 15h867c8.4 0 15-6.8 15-15v-1e3c0-8.4-6.8-15-15-15h-867z"/><path class="st2" d="m161 1372c-14 0-26-4.8-36-14s-14-21-14-35 4.8-26 14-35c9.6-9.6 22-14 36-14s26 4.8 36 14c9.6 9.6 14 21 14 35s-4.8 26-14 35-22 14-36 14zm-0.13-24c7.2 0 13-2.4 18-7.3s7.2-11 7.2-18c-0.09-7.4-2.6-14-7.5-18s-11-7.2-18-7.2-13 2.4-18 7.3c-4.8 4.9-7.3 11-7.3 18s2.4 13 7.3 18c4.8 4.8 11 7.3 18 7.3z"/><path class="st2" d="m265 1297c10 0 19 3.6 26 11s10 16 10 27-3.4 20-10 27c-6.8 7.1-15 11-25 11-8.1 0-15-2.8-20-8.3v6.5h-22v-99h23v33c5.2-4.9 12-7.4 19-7.4zm-4 54c4.8 0 8.7-1.6 12-4.8 3.1-3.2 4.6-7.2 4.6-12s-1.5-8.5-4.6-12c-3.1-3.2-7-4.9-12-4.9s-8.6 1.6-12 4.9-4.6 7.2-4.6 12 1.5 8.8 4.6 12c3.1 3.2 7 4.8 12 4.8z"/><path class="st2" d="m337 1372c-13 0-23-4.1-32-12l10-15c6.9 6 14 9 21 9 5.1 0 7.7-1.5 7.7-4.6 0-1.6-1.3-3-3.9-4-0.35-0.09-3-0.95-7.9-2.6-4.9-1.6-8.2-2.9-9.9-3.6-8.9-4.2-13-11-13-19 0-6.8 2.7-12 8.1-16 5.4-4.2 13-6.3 22-6.3 10 0 19 3.1 27 9.4l-9.9 15c-6-4.1-12-6.1-17-6.1-1.9 0-3.5 0.39-4.7 1.2-1.2 0.78-1.8 1.7-1.8 2.9 0 2.3 2.2 4.1 6.5 5.2 6.9 1.9 13 4 17 6.2 4.3 2.2 7.4 4.7 9.4 7.6 1.9 2.9 2.9 6.4 2.9 11 0 7-2.8 13-8.3 17-5.5 4.5-13 6.7-22 6.7z"/><path class="st2" d="m451 1333c0 3-0.26 6-0.78 9.2h-51c2.6 7.5 8.4 11 18 11 7.9 0 15-2.2 22-6.6l9 15c-9.2 6.6-20 9.9-32 9.9-13 0-23-3.6-29-11-6.8-7.2-10-16-10-27s3.6-20 11-27 16-11 28-11c11 0 19 3.2 26 9.6s10 15 10 26zm-37-18c-7.9 0-13 3.7-15 11h30c-0.96-3.5-2.7-6.2-5.3-8.1s-5.8-2.9-9.6-2.9z"/><path class="st2" d="m462 1370v-72h22v8.8c4.5-7.2 11-11 19-11 3.1 0 6.1 0.65 9 2l-1.8 22c-3.4-1.1-6.5-1.7-9.5-1.7-11 0-16 6.9-16 21v31h-23z"/><path class="st2" d="m568 1299h25l-31 72h-18l-31-72h25l15 41 15-41z"/><path class="st2" d="m650 1299h22v72h-22v-6.2c-5.8 5.4-13 8.1-21 8.1-10 0-19-3.6-25-11-6.6-7.3-9.9-16-9.9-27s3.3-20 9.9-27 15-11 25-11c8.3 0 15 2.8 21 8.3v-6.5zm-29 48c3.2 3.3 7.1 4.9 12 4.9s8.6-1.6 12-4.9 4.8-7.3 4.8-12-1.6-8.4-4.8-12-7.2-4.9-12-4.9-8.7 1.6-12 4.9-4.7 7.2-4.7 12 1.6 8.7 4.7 12z"/><path class="st2" d="m735 1348 6.1 18c-6.7 3.9-14 5.8-23 5.8-18 0-27-9.9-27-30v-25h-11v-19h11v-25h23v25h22v19h-22v22c0 7.6 3 11 9.1 11 3.4 0 7.2-1.1 11-3.2z"/><path class="st2" d="m784 1372c-12 0-21-3.6-28-11-7.2-7.3-11-16-11-27s3.6-20 11-27 17-11 28-11 21 3.7 28 11 11 16 11 27-3.6 20-11 27c-7.2 7.3-17 11-28 11zm0-21c4.6 0 8.4-1.6 12-4.7s4.7-7.1 4.7-12-1.6-8.4-4.7-12-7-4.7-12-4.7-8.3 1.6-11 4.7c-3.1 3.2-4.7 7-4.7 12s1.6 8.6 4.7 12 6.9 4.7 11 4.7zm-11-62 8.3-24h25l-12 24h-21z"/><path class="st2" d="m834 1370v-72h22v8.8c4.5-7.2 11-11 19-11 3.1 0 6.1 0.65 9 2l-1.8 22c-3.4-1.1-6.5-1.7-9.5-1.7-11 0-16 6.9-16 21v31h-23z"/><path class="st2" d="m913 1288c-2.6 2.5-5.7 3.7-9.4 3.7s-6.9-1.2-9.4-3.7-3.8-5.6-3.8-9.4 1.3-6.8 3.8-9.3 5.7-3.7 9.4-3.7 6.9 1.2 9.4 3.7c2.6 2.5 3.8 5.6 3.8 9.3s-1.3 7-3.8 9.4zm2.1 82h-23v-72h23v72z"/><path class="st2" d="m965 1372c-12 0-21-3.6-28-11-7.2-7.3-11-16-11-27s3.6-20 11-27 17-11 28-11 21 3.7 28 11 11 16 11 27-3.6 20-11 27c-7.2 7.3-17 11-28 11zm0-21c4.6 0 8.4-1.6 12-4.7s4.7-7.1 4.7-12-1.6-8.4-4.7-12-7-4.7-12-4.7-8.3 1.6-11 4.7c-3.1 3.2-4.7 7-4.7 12s1.6 8.6 4.7 12 6.9 4.7 11 4.7z"/><path class="st2" d="m162 1416h22v94h-21v-5.9c-5.1 5.1-11 7.7-19 7.7-9.6 0-18-3.4-24-10-6.4-6.8-9.5-15-9.5-26s3.2-19 9.6-26 14-10 24-10c7.3 0 13 2.4 18 7v-31zm-15 76c4.5 0 8.3-1.6 11-4.6 2.9-3.1 4.4-6.9 4.4-11s-1.5-8.2-4.4-11c-2.9-3-6.7-4.6-11-4.6s-8.2 1.6-11 4.6-4.4 6.8-4.4 11 1.5 8.4 4.4 11c3 3.1 6.7 4.6 11 4.6z"/><path class="st2" d="m248 1442h21v68h-21v-5.9c-5.5 5.1-12 7.7-20 7.7-9.7 0-18-3.5-24-10-6.3-6.9-9.4-16-9.4-26s3.2-19 9.5-26c6.3-6.7 14-10 24-10 7.9 0 15 2.6 20 7.9v-6.2zm-27 45c3 3.1 6.7 4.7 11 4.7s8.2-1.6 11-4.7c3-3.1 4.6-6.9 4.6-11s-1.5-8-4.6-11c-3-3.1-6.8-4.7-11-4.7s-8.3 1.6-11 4.6-4.5 6.8-4.5 11 1.5 8.2 4.5 11z"/><path class="st2" d="m308 1513c-12 0-22-3.9-30-12l9.8-15c6.6 5.7 13 8.5 20 8.5 4.9 0 7.3-1.4 7.3-4.3 0-1.6-1.2-2.8-3.7-3.8-0.33-0.08-2.8-0.91-7.5-2.5s-7.8-2.7-9.5-3.5c-8.5-4-13-10-13-19 0-6.4 2.6-12 7.7-16 5.1-4 12-6 21-6 9.7 0 18 3 26 8.9l-9.4 14c-5.7-3.9-11-5.8-16-5.8-1.8 0-3.3 0.37-4.5 1.1s-1.7 1.6-1.7 2.7c0 2.2 2.1 3.9 6.2 5 6.6 1.8 12 3.8 16 5.9 4.1 2.1 7.1 4.5 8.9 7.2 1.8 2.8 2.7 6.1 2.7 10 0 6.7-2.6 12-7.9 16s-12 6.4-21 6.4z"/><path class="st2" d="m381 1511v-91h66v21h-43v13h40v21h-40v14h43v21h-66z"/><path class="st2" d="m545 1440c7.9 0 15 2.5 20 7.4 5.5 4.9 8.2 12 8.2 21v42h-22v-37c0-4.3-1.1-7.5-3.2-9.6-2.2-2.2-4.9-3.2-8.2-3.2-3.7 0-6.8 1.2-9.2 3.6s-3.6 5.7-3.6 10v37h-22v-37c0-4-1.1-7.2-3.3-9.5s-5-3.4-8.5-3.4-6.5 1.2-8.8 3.6-3.5 5.7-3.5 10v37h-22v-68h21v9.5c1.9-3.6 4.8-6.4 8.7-8.5 3.9-2.1 8.1-3.1 12-3 9.2 0.17 15 4 19 11 2.6-3.7 6-6.5 10-8.5s8.9-2.9 14-2.9z"/><path class="st2" d="m628 1441c9.7 0 18 3.4 24 10s9.4 15 9.4 25-3.2 19-9.5 26-14 10-24 10c-7.6 0-14-2.5-19-7.4v34h-22v-96h22v6.3c5.4-5.4 12-8 20-8zm-15 47c2.9 3 6.6 4.6 11 4.6s8.1-1.5 11-4.6c2.9-3 4.3-6.8 4.3-11s-1.4-8.2-4.3-11c-2.9-3-6.6-4.5-11-4.5s-8.2 1.5-11 4.5-4.4 6.8-4.4 11 1.5 8.1 4.4 11z"/><path class="st2" d="m672 1511v-68h21v8.4c4.3-6.8 10-10 18-10 3 0 5.8 0.62 8.5 1.9l-1.7 21c-3.2-1.1-6.2-1.6-9-1.6-10 0-15 6.6-15 20v29h-22z"/><path class="st2" d="m794 1475c0 2.8-0.25 5.7-0.74 8.8h-49c2.5 7.2 8 11 17 11 7.5 0 14-2.1 21-6.3l8.5 15c-8.8 6.3-19 9.4-30 9.4-12 0-21-3.4-28-10-6.5-6.9-9.8-15-9.8-25s3.4-19 10-26 16-10 26-10c10 0 19 3.1 25 9.2 6.6 6.1 9.9 14 9.9 25zm-35-17c-7.5 0-12 3.5-15 11h29c-0.91-3.3-2.6-5.9-5.1-7.7s-5.5-2.8-9.2-2.8z"/><path class="st2" d="m829 1513c-12 0-22-3.9-30-12l9.8-15c6.6 5.7 13 8.5 20 8.5 4.9 0 7.3-1.4 7.3-4.3 0-1.6-1.2-2.8-3.7-3.8-0.33-0.08-2.8-0.91-7.5-2.5s-7.8-2.7-9.5-3.5c-8.5-4-13-10-13-19 0-6.4 2.6-12 7.7-16 5.1-4 12-6 21-6 9.7 0 18 3 26 8.9l-9.4 14c-5.7-3.9-11-5.8-16-5.8-1.8 0-3.3 0.37-4.5 1.1s-1.7 1.6-1.7 2.7c0 2.2 2.1 3.9 6.2 5 6.6 1.8 12 3.8 16 5.9 4.1 2.1 7.1 4.5 8.9 7.2 1.8 2.8 2.7 6.1 2.7 10 0 6.7-2.6 12-7.9 16s-12 6.4-21 6.4z"/><path class="st2" d="m919 1442h21v68h-21v-5.9c-5.5 5.1-12 7.7-20 7.7-9.7 0-18-3.5-24-10-6.3-6.9-9.4-16-9.4-26s3.2-19 9.5-26c6.3-6.7 14-10 24-10 7.9 0 15 2.6 20 7.9v-6.2zm-27 45c3 3.1 6.7 4.7 11 4.7s8.2-1.6 11-4.7c3-3.1 4.6-6.9 4.6-11s-1.5-8-4.6-11c-3-3.1-6.8-4.7-11-4.7s-8.3 1.6-11 4.6-4.5 6.8-4.5 11 1.5 8.2 4.5 11z"/><path class="st2" d="m979 1513c-12 0-22-3.9-30-12l9.8-15c6.6 5.7 13 8.5 20 8.5 4.9 0 7.3-1.4 7.3-4.3 0-1.6-1.2-2.8-3.7-3.8-0.33-0.08-2.8-0.91-7.5-2.5s-7.8-2.7-9.5-3.5c-8.5-4-13-10-13-19 0-6.4 2.6-12 7.7-16 5.1-4 12-6 21-6 9.7 0 18 3 26 8.9l-9.4 14c-5.7-3.9-11-5.8-16-5.8-1.8 0-3.3 0.37-4.5 1.1s-1.7 1.6-1.7 2.7c0 2.2 2.1 3.9 6.2 5 6.6 1.8 12 3.8 16 5.9 4.1 2.1 7.1 4.5 8.9 7.2 1.8 2.8 2.7 6.1 2.7 10 0 6.7-2.6 12-7.9 16s-12 6.4-21 6.4z"/><path class="st2" d="m151 1564h18v77h-17v-4.8c-4.2 4.2-9.3 6.2-16 6.2-7.8 0-14-2.8-19-8.3-5.2-5.5-7.8-13-7.8-21s2.6-15 7.8-21c5.2-5.6 12-8.3 19-8.3 6 0 11 1.9 15 5.8v-26zm-12 62c3.7 0 6.7-1.3 9.1-3.8s3.6-5.6 3.6-9.3-1.2-6.7-3.6-9.2c-2.4-2.5-5.4-3.7-9.1-3.7s-6.7 1.3-9.1 3.8-3.6 5.6-3.6 9.1 1.2 6.8 3.6 9.3 5.4 3.8 9.1 3.8z"/><path class="st2" d="m208 1643c-8.9 0-16-2.8-22-8.5s-8.4-13-8.4-21 2.8-15 8.4-21c5.6-5.7 13-8.5 22-8.5s16 2.8 22 8.5 8.4 13 8.4 21-2.8 15-8.4 21c-5.6 5.6-13 8.5-22 8.5zm0-17c3.6 0 6.6-1.2 9-3.7s3.6-5.5 3.6-9.1-1.2-6.6-3.7-9c-2.5-2.4-5.4-3.6-8.9-3.6s-6.4 1.2-8.9 3.7c-2.4 2.5-3.6 5.4-3.6 8.9s1.2 6.7 3.6 9.1 5.4 3.7 8.9 3.7z"/><path class="st2" d="m274 1641v-75h54v17h-35v11h32v17h-32v11h35v17h-54z"/><path class="st2" d="m359 1643c-9.8 0-18-3.2-25-9.6l8-12c5.4 4.6 11 7 17 7 4 0 6-1.2 6-3.5 0-1.3-1-2.3-3-3.1-0.27-0.07-2.3-0.74-6.1-2s-6.4-2.2-7.7-2.8c-6.9-3.2-10-8.3-10-15 0-5.2 2.1-9.5 6.2-13 4.2-3.3 9.8-4.9 17-4.9 7.9 0 15 2.4 21 7.3l-7.7 12c-4.6-3.2-9.1-4.7-13-4.7-1.5 0-2.7 0.3-3.6 0.91-0.94 0.6-1.4 1.4-1.4 2.2 0 1.8 1.7 3.2 5 4 5.4 1.5 9.8 3.1 13 4.8 3.4 1.7 5.8 3.6 7.3 5.9s2.2 5 2.2 8.2c0 5.4-2.2 9.9-6.5 13-4.3 3.5-10 5.2-17 5.2z"/><path class="st2" d="m425 1584c7.9 0 14 2.8 20 8.4 5.1 5.6 7.7 13 7.7 21s-2.6 15-7.7 21-12 8.5-19 8.5c-6.2 0-11-2-16-6v28h-18v-79h18v5.1c4.4-4.4 9.7-6.6 16-6.6zm-12 38c2.4 2.5 5.4 3.7 9 3.7s6.6-1.2 9-3.7c2.4-2.5 3.5-5.5 3.5-9.1s-1.2-6.7-3.5-9.1c-2.4-2.4-5.3-3.7-9-3.7s-6.6 1.2-9 3.7c-2.4 2.5-3.6 5.5-3.6 9.1s1.2 6.6 3.6 9.1z"/><path class="st2" d="m479 1641h-18v-56h18v56zm-17-63 6.5-18h19l-9.6 18h-16z"/><path class="st2" d="m490 1641v-56h17v6.9c3.5-5.6 8.4-8.4 15-8.4 2.4 0 4.7 0.51 7 1.5l-1.4 17c-2.6-0.87-5.1-1.3-7.4-1.3-8.2 0-12 5.3-12 16v24h-18z"/><path class="st2" d="m551 1578c-2 1.9-4.4 2.9-7.3 2.9s-5.3-0.96-7.3-2.9c-2-1.9-3-4.4-3-7.3s0.99-5.3 3-7.2c2-1.9 4.4-2.9 7.3-2.9s5.3 0.96 7.3 2.9c2 1.9 3 4.3 3 7.2s-0.99 5.4-3 7.3zm1.7 64h-18v-56h18v56z"/><path class="st2" d="m602 1624 4.7 14c-5.2 3-11 4.5-18 4.5-14 0-21-7.7-21-23v-19h-8.5v-15h8.7v-20h18v20h17v15h-17v17c0 5.9 2.4 8.9 7.1 8.9 2.6 0 5.6-0.84 8.8-2.5z"/><path class="st2" d="m640 1643c-8.9 0-16-2.8-22-8.5s-8.4-13-8.4-21 2.8-15 8.4-21c5.6-5.7 13-8.5 22-8.5s16 2.8 22 8.5 8.4 13 8.4 21-2.8 15-8.4 21-13 8.5-22 8.5zm0-17c3.6 0 6.6-1.2 9-3.7s3.6-5.5 3.6-9.1-1.2-6.6-3.7-9c-2.5-2.4-5.4-3.6-8.9-3.6s-6.4 1.2-8.9 3.7c-2.4 2.5-3.6 5.4-3.6 8.9s1.2 6.7 3.6 9.1 5.4 3.7 8.9 3.7z"/><path class="st2" d="m730 1643c-12 0-23-4.3-30-13l9.5-14c6.2 6.2 13 9.4 21 9.4 2.3 0 4.2-0.47 5.9-1.4s2.5-2.3 2.5-4c0-2.3-2-4.2-6-5.8-0.2-0.07-2.4-0.82-6.6-2.3-4.2-1.4-7.4-2.7-9.5-3.8-8.2-4.3-12-11-12-19 0-6.6 2.6-12 7.8-16 5.2-4.4 12-6.6 20-6.6 10 0 19 3.1 27 9.4l-8.8 14c-2.2-1.8-5-3.3-8.3-4.4-3.3-1.1-6.4-1.7-9.2-1.7-2.6 0-4.5 0.47-5.9 1.4s-2.1 2.1-2.1 3.4c0 2.2 2 4.1 6 5.6 0.6 0.2 2.8 0.99 6.6 2.4s6.6 2.5 8.6 3.3c9.5 4 14 11 14 20 0 6.9-2.7 13-8.1 17s-13 6.7-21 6.7z"/><path class="st2" d="m809 1586h17v56h-17v-4.8c-4.5 4.2-10 6.2-16 6.2-7.9 0-14-2.8-20-8.5-5.1-5.6-7.7-13-7.7-21s2.6-15 7.7-21c5.1-5.5 12-8.2 20-8.2 6.4 0 12 2.2 16 6.5v-5zm-22 37c2.4 2.6 5.5 3.8 9.1 3.8s6.7-1.3 9.2-3.8c2.5-2.6 3.7-5.6 3.7-9.3s-1.2-6.5-3.7-9.1c-2.5-2.6-5.6-3.8-9.2-3.8s-6.8 1.3-9.2 3.8-3.6 5.6-3.6 9.1 1.2 6.7 3.7 9.3z"/><path class="st2" d="m837 1641v-56h17v7.8c1.3-2.6 3.6-4.8 6.7-6.6 3.1-1.8 6.7-2.7 11-2.7 6 0 11 2 15 6 4.2 4 6.2 9.6 6.2 17v34h-18v-29c0-3.6-0.87-6.5-2.6-8.5s-4.1-3-7.2-3c-3.2 0-5.8 1.1-7.9 3.3-2 2.2-3 5.1-3 8.7v29h-18z"/><path class="st2" d="m942 1624 4.7 14c-5.2 3-11 4.5-18 4.5-14 0-21-7.7-21-23v-19h-8.5v-15h8.7v-20h18v20h17v15h-17v17c0 5.9 2.4 8.9 7.1 8.9 2.6 0 5.6-0.84 8.8-2.5z"/><path class="st2" d="m980 1643c-8.9 0-16-2.8-22-8.5s-8.4-13-8.4-21 2.8-15 8.4-21c5.6-5.7 13-8.5 22-8.5s16 2.8 22 8.5 8.4 13 8.4 21-2.8 15-8.4 21c-5.6 5.6-13 8.5-22 8.5zm0-17c3.6 0 6.6-1.2 9-3.7s3.6-5.5 3.6-9.1-1.2-6.6-3.7-9c-2.5-2.4-5.4-3.6-8.9-3.6s-6.4 1.2-8.9 3.7c-2.4 2.5-3.6 5.4-3.6 8.9s1.2 6.7 3.6 9.1 5.4 3.7 8.9 3.7z"/><rect class="st1" x="160" y="164" width="128" height="395"/><rect class="st1" x="325" y="164" width="128" height="315"/><rect class="st1" x="490" y="164" width="128" height="236"/><rect class="st1" x="655" y="164" width="128" height="150"/><rect class="st1" x="819" y="164" width="128" height="86"/><path class="st0" d="m511 235c-36 17-55 26-58 27-20 12-30 25-31 40 4.7 1.6 13 8.3 25 20 15 15 22 28 21 38-1.6 20 9.1 40 32 59v17h-11c-13-6.3-25-12-34-17h-38v21c3.2 4 18 23 44 58 25 34 37 54 37 59 0 13-7.5 38-23 74-17 37-32 64-45 81-7.9 8.7-21 21-38 37-16 13-27 25-34 33 2.4 26 2 42-1.2 47-4 7.9-17 12-38 12-7.1 0-17-1.6-30-4.7-13-4-23-5.9-30-5.9l-25 2.4v4.8l13 79c0 13-4.4 23-13 31-8 6.7-13 21-14 42 15 4 32 8 52 12 4.7 0.79 7.1 6.7 7.1 18 0 11-1.6 21-4.8 31-4 9.5-5.9 17-5.9 21 0 4 4.4 11 13 21 4.7 4.8 11 11 19 20 4.7 6.3 21 9.9 49 11 3.4 0 41 7.1 114 21 2.6-4.1 5.8-8.9 9.5-14 3.4-5.1 7.3-11 12-17 17-23 28-38 36-44 4-4 12-15 24-34 12-18 21-30 26-36 5.5-5.5 19-19 39-40 20-20 33-34 39-44 8.7-14 15-29 19-44 3.2-14 7.1-25 12-33s11-18 20-31c5.5-10 7.9-21 7.1-31 0-24 13-50 40-79 21-24 45-47 72-69 17-17 26-42 26-74 0.02-24-4.7-64-14-122-9.5-58-8.7-97 2.4-117 6.4-12 13-25 19-40-6.4-13-18-25-36-37-29-19-52-31-68-36-7.1-2.4-32-6.7-75-13 2.2-3.7 6.6-12 13-26h-4.8c2.2-0.06 3.8-0.85 4.8-2.4-5.7-2.6-27 0.21-65 8.3l-50-5.9c-22 0-33 7.9-32 24 0 21-9.9 37-30 46"/><path class="st2" d="m464 1148-1.5-0.3c-90-18-111-21-113-21-29-0.82-45-4.6-50-12-7.7-8.4-14-15-19-20-12-15-14-20-14-23 0-5.1 2-12 6.1-22 3-9 4.6-19 4.6-30 0-6.7-0.91-15-5.2-16-20-3.8-38-7.9-52-12l-1.8-0.5 0.13-1.9c1.5-22 6.4-36 15-43 8.2-7.4 12-17 12-29l-13-80v-6.8l27-2.6h0.05c6.8 0 17 2 30 6 12 3.1 22 4.6 29 4.6 20 0 32-3.6 36-11 2.1-3.6 3.8-14 0.95-46l-0.09-0.93 0.6-0.73c7.2-8.8 19-20 35-34 17-16 30-28 38-37 13-16 28-43 45-80 15-35 22-60 22-73 0-2.8-4.7-14-36-58-26-35-41-54-44-58l-0.5-0.63v-24h41l0.48 0.24c9.4 4.7 21 10 34 16h7.9v-13c-23-20-34-40-32-61 0.73-9.5-6.2-22-21-36-14-14-21-19-24-20l-1.7-0.55 0.09-1.7c0.83-16 12-30 32-42 3.4-1.7 23-11 58-27 19-9.2 28-24 28-44-0.36-7.1 1.5-13 5.6-17 5.5-5.8 15-8.8 29-8.8l0.27 0.02 49 5.9c51-11 62-9.8 66-8.1l2.4 1.1-0.69 1.1h0.95l-1.6 3.3c-5.2 11-9 19-11 23 41 6.1 65 10 72 13 16 4.8 39 17 68 36 18 12 30 24 36 38l0.45 0.93-0.39 0.95c-6.3 15-13 29-19 41-11 20-12 59-2.1 116 9.5 58 14 99 14 123 0 32-9 57-27 75l-0.19 0.17c-27 22-52 45-72 68-26 29-40 55-40 78 0.81 10-1.7 21-7.4 32l-0.13 0.21c-8.6 13-15 23-20 31-4.6 7.6-8.5 19-12 33-4 15-10 30-19 45-6.4 9.6-20 25-39 44-20 21-34 35-39 40-5.4 5.4-14 17-26 35-12 19-20 31-24 35-7.1 6.3-19 21-35 44-4.5 5.8-8.4 11-12 17-3.7 5.3-6.9 10-9.5 14l-0.84 1.3zm-242-160c14 3.8 31 7.7 50 11 9 1.5 9 15 9 20 0 11-1.6 22-4.9 32-3.9 9.3-5.8 16-5.8 21 0 1.9 1.6 7 13 20 4.6 4.6 11 11 19 20 3.1 4.1 14 9 47 9.9 2.2 0 16 2.2 113 21 2.5-3.9 5.4-8.2 8.7-13 3.4-5.2 7.4-11 12-17 17-23 29-38 36-44 3.7-3.7 12-15 23-34 12-19 21-30 26-36 5.5-5.5 19-19 39-40 20-20 33-34 39-44 8.5-14 15-28 19-43 3.2-14 7.3-26 12-34 4.7-7.9 12-18 20-31 5.3-9.8 7.5-20 6.8-29-0.01-24 14-52 41-81 20-24 45-47 72-69 17-17 25-41 25-72 0.02-23-4.8-64-14-122-9.7-59-8.8-98 2.6-119 6.1-11 12-24 18-39-6.3-12-18-24-34-35-29-19-51-31-67-35-7-2.3-32-6.7-74-13l-3.4-0.5 1.8-3c2-3.3 5.8-11 11-23h-1.1l-0.04-3.3c-7-0.42-23 1.3-60 9.2l-0.37 0.08-50-6c-12 0.02-21 2.5-25 7.4-3.2 3.4-4.7 8-4.4 14 0 22-10 39-31 48h-0.02c-35 17-55 26-58 27-18 11-28 23-29 37 5.2 2.5 13 9.1 24 20 16 16 23 29 22 40-1.5 19 9 38 31 57l0.79 0.69v20h-13l-0.46-0.22c-13-6.2-25-12-34-16h-35v18c4 5 18 24 43 58 33 46 37 57 37 61 0 14-7.4 38-23 74-17 37-32 64-45 81-8 8.8-21 21-38 37-15 13-27 24-34 32 2.3 26 1.8 42-1.6 48-4.4 8.7-17 13-40 13-7.3 0-17-1.6-30-4.8-13-3.9-23-5.9-29-5.9l-23 2.2v2.5l13 80c0 13-4.6 24-14 33-7.3 6.1-12 19-13 38z"/><rect class="st3" x="819" y="753" width="128" height="395"/><rect class="st3" x="655" y="832" width="128" height="315"/><rect class="st3" x="490" y="911" width="128" height="236"/><rect class="st3" x="325" y="998" width="128" height="150"/><rect class="st3" x="160" y="1061" width="128" height="86"/></svg>
